<?xml version="1.0" encoding="utf-8"?>
<!-- Generator: Adobe Illustrator 21.0.0, SVG Export Plug-In . SVG Version: 6.00 Build 0)  -->
<svg version="1.1" id="Livello_1" xmlns="http://www.w3.org/2000/svg" xmlns:xlink="http://www.w3.org/1999/xlink" x="0px" y="0px"
	 viewBox="0 0 216 48" style="enable-background:new 0 0 216 48;" xml:space="preserve">
<style type="text/css">
	.st0{fill:#ffffff;fill-color: #fff}
</style>
<path class="st0" d="M94,13.7v4.5c0,0.7,0,1.2,0.1,1.4c0.1,0.2,0.2,0.3,0.5,0.5c0.2,0.1,0.6,0.2,1,0.2h0.5v0.4h-7.5v-0.4H89
	c0.4,0,0.8-0.1,1-0.2c0.2-0.1,0.3-0.3,0.4-0.5c0.1-0.2,0.1-0.6,0.1-1.3V8.7c0-0.7,0-1.2-0.1-1.4C90.4,7.1,90.2,7,90,6.8
	c-0.2-0.1-0.6-0.2-1-0.2h-0.5V6.2h7.5v0.4h-0.5c-0.4,0-0.8,0.1-1,0.2c-0.2,0.1-0.3,0.3-0.4,0.5C94.1,7.5,94,8,94,8.7v4.1h5.1V8.7
	c0-0.7,0-1.2-0.1-1.4c-0.1-0.2-0.2-0.3-0.5-0.5c-0.2-0.1-0.6-0.2-1-0.2h-0.5V6.2h7.5v0.4h-0.5c-0.4,0-0.8,0.1-1,0.2
	c-0.2,0.1-0.3,0.3-0.4,0.5c-0.1,0.2-0.1,0.6-0.1,1.3v9.5c0,0.7,0,1.2,0.1,1.4c0.1,0.2,0.2,0.3,0.5,0.5c0.2,0.1,0.6,0.2,1,0.2h0.5
	v0.4h-7.5v-0.4h0.5c0.4,0,0.8-0.1,1-0.2c0.2-0.1,0.3-0.3,0.4-0.5c0.1-0.2,0.1-0.6,0.1-1.3v-4.5H94z"/>
<path class="st0" d="M104.3,6.2h7.5v0.4h-0.4c-0.6,0-0.9,0.1-1.2,0.2c-0.2,0.1-0.4,0.3-0.4,0.5c-0.1,0.2-0.1,0.7-0.1,1.5v7.1
	c0,1.3,0.1,2.1,0.3,2.6c0.2,0.4,0.5,0.8,1,1c0.4,0.3,1,0.4,1.7,0.4c0.8,0,1.4-0.2,2-0.5c0.5-0.4,1-0.8,1.2-1.5
	c0.3-0.6,0.4-1.7,0.4-3.2V8.8c0-0.6-0.1-1.1-0.2-1.4c-0.1-0.3-0.3-0.5-0.5-0.6c-0.3-0.2-0.8-0.2-1.4-0.2V6.2h5v0.4h-0.3
	c-0.4,0-0.7,0.1-1,0.2c-0.3,0.2-0.5,0.4-0.6,0.7c-0.1,0.2-0.1,0.6-0.1,1.2v5.5c0,1.7-0.1,2.9-0.3,3.7c-0.2,0.8-0.8,1.4-1.6,2.1
	c-0.9,0.6-2,0.9-3.5,0.9c-1.2,0-2.2-0.2-2.9-0.5c-0.9-0.5-1.6-1-2-1.7c-0.4-0.7-0.6-1.7-0.6-2.9V8.8c0-0.8,0-1.3-0.1-1.6
	c-0.1-0.2-0.3-0.4-0.5-0.5c-0.2-0.1-0.6-0.2-1.3-0.2L104.3,6.2L104.3,6.2z"/>
<path class="st0" d="M129,15.7l3.9-9.5h5.9v0.4h-0.5c-0.4,0-0.8,0.1-1,0.2c-0.2,0.1-0.3,0.3-0.4,0.5c-0.1,0.2-0.1,0.6-0.1,1.3v9.5
	c0,0.7,0,1.2,0.1,1.4c0.1,0.2,0.2,0.3,0.5,0.5c0.2,0.1,0.6,0.2,1,0.2h0.5v0.4h-7.5v-0.4h0.5c0.4,0,0.8-0.1,1-0.2
	c0.2-0.1,0.3-0.3,0.4-0.5c0.1-0.2,0.1-0.6,0.1-1.3V7.5l-5.5,13.2h-0.3l-5.6-13.1v10.2c0,0.7,0,1.1,0.1,1.3c0.1,0.4,0.3,0.6,0.6,0.9
	c0.3,0.2,0.8,0.3,1.5,0.3v0.4H119v-0.4h0.1c0.3,0,0.6,0,0.9-0.2c0.3-0.1,0.5-0.3,0.6-0.4c0.1-0.2,0.3-0.4,0.3-0.8c0-0.1,0-0.4,0-1.1
	V8.7c0-0.7,0-1.2-0.1-1.4c-0.1-0.2-0.2-0.3-0.5-0.5c-0.2-0.1-0.6-0.2-1-0.2H119V6.2h5.9L129,15.7z"/>
<path class="st0" d="M146.1,16.5H141l-0.6,1.4c-0.2,0.5-0.3,0.9-0.3,1.2c0,0.4,0.2,0.7,0.5,0.9c0.2,0.1,0.7,0.2,1.4,0.3v0.4h-4.8
	v-0.4c0.5-0.1,0.9-0.3,1.3-0.6c0.3-0.4,0.7-1.1,1.2-2.2l5.2-11.5h0.2l5.2,11.8c0.5,1.1,0.9,1.8,1.2,2.1c0.2,0.2,0.6,0.3,1,0.4v0.4
	h-7v-0.4h0.3c0.6,0,1-0.1,1.2-0.2c0.2-0.1,0.2-0.3,0.2-0.5c0-0.1,0-0.3-0.1-0.4c0-0.1-0.1-0.3-0.3-0.8L146.1,16.5z M145.8,15.8
	l-2.2-5l-2.2,5H145.8z"/>
<path class="st0" d="M156.1,6.2l7.1,9V9c0-0.9-0.1-1.5-0.4-1.8c-0.3-0.4-0.9-0.6-1.7-0.6V6.2h4.8v0.4c-0.6,0.1-1,0.2-1.2,0.3
	c-0.2,0.1-0.4,0.3-0.5,0.6C164.1,7.8,164,8.3,164,9v12h-0.4l-9.8-12v9.2c0,0.8,0.2,1.4,0.6,1.7c0.4,0.3,0.8,0.4,1.3,0.4h0.3v0.4H151
	v-0.4c0.8,0,1.4-0.2,1.7-0.5c0.3-0.3,0.5-0.9,0.5-1.6V7.9l-0.3-0.4c-0.3-0.4-0.6-0.6-0.8-0.8c-0.2-0.1-0.6-0.2-1-0.2V6.2L156.1,6.2
	L156.1,6.2z"/>
<path class="st0" d="M173.5,20.3v0.4h-7.6v-0.4h0.5c0.4,0,0.8-0.1,1-0.2c0.2-0.1,0.3-0.3,0.4-0.5c0.1-0.2,0.1-0.6,0.1-1.3V8.7
	c0-0.7,0-1.2-0.1-1.4s-0.2-0.3-0.5-0.5c-0.2-0.1-0.6-0.2-1-0.2h-0.5V6.2h7.6v0.4H173c-0.4,0-0.8,0.1-1,0.2c-0.2,0.1-0.3,0.3-0.4,0.5
	c-0.1,0.2-0.1,0.6-0.1,1.3v9.5c0,0.7,0,1.2,0.1,1.4c0.1,0.2,0.2,0.3,0.5,0.5c0.2,0.1,0.6,0.2,1,0.2H173.5z"/>
<path class="st0" d="M186.7,6.2v3.9h-0.4c-0.2-0.9-0.5-1.5-0.8-1.9c-0.3-0.4-0.7-0.7-1.1-0.9C184.2,7.1,183.7,7,183,7h-1.1v11.1
	c0,0.7,0,1.2,0.1,1.4c0.1,0.2,0.2,0.3,0.5,0.5c0.2,0.1,0.6,0.2,1,0.2h0.5v0.4h-7.6v-0.4h0.5c0.4,0,0.8-0.1,1-0.2
	c0.2-0.1,0.3-0.3,0.4-0.5c0.1-0.2,0.1-0.6,0.1-1.3V7h-1c-1,0-1.7,0.2-2.1,0.6c-0.6,0.6-1,1.4-1.2,2.5h-0.4V6.2L186.7,6.2L186.7,6.2z
	"/>
<path class="st0" d="M192.8,16.5h-5.1l-0.6,1.4c-0.2,0.5-0.3,0.9-0.3,1.2c0,0.4,0.2,0.7,0.5,0.9c0.2,0.1,0.7,0.2,1.4,0.3v0.4h-4.8
	v-0.4c0.5-0.1,0.9-0.3,1.3-0.6c0.3-0.4,0.7-1.1,1.2-2.2l5.2-11.5h0.2l5.2,11.8c0.5,1.1,0.9,1.8,1.2,2.1c0.2,0.2,0.6,0.3,1,0.4v0.4
	h-7v-0.4h0.3c0.6,0,1-0.1,1.2-0.2c0.2-0.1,0.2-0.3,0.2-0.5c0-0.1,0-0.3-0.1-0.4c0-0.1-0.1-0.3-0.3-0.8L192.8,16.5z M192.5,15.8
	l-2.2-5l-2.2,5H192.5z"/>
<path class="st0" d="M207.7,5.9l0.1,4.7h-0.4c-0.2-1.2-0.7-2.1-1.5-2.9c-0.8-0.7-1.6-1.1-2.6-1.1c-0.7,0-1.3,0.2-1.7,0.6
	c-0.4,0.4-0.6,0.8-0.6,1.3c0,0.3,0.1,0.6,0.2,0.8c0.2,0.3,0.5,0.6,1,1c0.3,0.2,1.1,0.6,2.3,1.2c1.7,0.8,2.8,1.6,3.3,2.3
	c0.6,0.7,0.9,1.5,0.9,2.5c0,1.2-0.5,2.2-1.4,3c-0.9,0.9-2.1,1.3-3.5,1.3c-0.4,0-0.9,0-1.3-0.1c-0.4-0.1-0.9-0.3-1.5-0.5
	c-0.3-0.1-0.6-0.2-0.8-0.2c-0.2,0-0.4,0.1-0.6,0.2c-0.2,0.1-0.4,0.4-0.5,0.6h-0.4v-5.3h0.4c0.3,1.5,0.9,2.6,1.8,3.4
	c0.9,0.8,1.8,1.2,2.8,1.2c0.8,0,1.4-0.2,1.9-0.6c0.5-0.4,0.7-0.9,0.7-1.5c0-0.3-0.1-0.7-0.3-1c-0.2-0.3-0.4-0.6-0.8-0.9
	c-0.4-0.3-1-0.6-1.9-1.1c-1.3-0.6-2.2-1.2-2.8-1.6c-0.6-0.4-1-0.9-1.3-1.5c-0.3-0.5-0.5-1.2-0.5-1.8c0-1.1,0.4-2.1,1.2-2.9
	c0.8-0.8,1.9-1.2,3.1-1.2c0.5,0,0.9,0.1,1.3,0.2c0.3,0.1,0.7,0.2,1.2,0.5c0.5,0.2,0.8,0.3,1,0.3c0.2,0,0.3-0.1,0.4-0.2
	c0.1-0.1,0.2-0.4,0.3-0.8L207.7,5.9L207.7,5.9z"/>
<path class="st0" d="M90.1,32.8V24h1.7v8.7c0,3.3,1.8,5.1,4.6,5.1c2.8,0,4.6-1.7,4.6-5V24h1.7v8.7c0,4.4-2.5,6.7-6.3,6.7
	C92.7,39.4,90.1,37.1,90.1,32.8"/>
<polygon class="st0" points="105.2,24 106.8,24 116.3,36.2 116.3,24 118,24 118,39.2 116.6,39.2 106.8,26.8 106.8,39.2 105.2,39.2 
	"/>
<rect x="120.8" y="24" class="st0" width="1.7" height="15.1"/>
<polygon class="st0" points="124,24 125.9,24 131.3,37.1 136.7,24 138.5,24 132,39.3 130.5,39.3 "/>
<polygon class="st0" points="139.9,24 150.8,24 150.8,25.6 141.6,25.6 141.6,30.8 149.9,30.8 149.9,32.3 141.6,32.3 141.6,37.6 
	150.9,37.6 150.9,39.2 139.9,39.2 "/>
<path class="st0" d="M152.8,24h6.5c1.9,0,3.4,0.6,4.3,1.5c0.7,0.7,1.2,1.8,1.2,3v0c0,2.5-1.7,4-4.1,4.4l4.6,6.2h-2.1l-4.4-5.9h-4.3
	v5.9h-1.7L152.8,24L152.8,24z M159.1,31.8c2.3,0,3.9-1.2,3.9-3.1v0c0-1.9-1.4-3-3.9-3h-4.7v6.1L159.1,31.8L159.1,31.8z"/>
<path class="st0" d="M165.8,37l1.1-1.3c1.6,1.4,3.1,2.1,5.2,2.1c2,0,3.4-1.1,3.4-2.6v0c0-1.4-0.8-2.2-3.9-2.9
	c-3.5-0.8-5.1-1.9-5.1-4.4v0c0-2.4,2.1-4.1,5-4.1c2.2,0,3.8,0.6,5.3,1.9l-1,1.3c-1.4-1.1-2.8-1.6-4.4-1.6c-2,0-3.2,1.1-3.2,2.4v0
	c0,1.4,0.8,2.2,4.1,2.9c3.4,0.7,4.9,2,4.9,4.3v0c0,2.6-2.2,4.3-5.2,4.3C169.6,39.4,167.6,38.6,165.8,37"/>
<rect x="179.1" y="24" class="st0" width="1.7" height="15.1"/>
<polygon class="st0" points="187.7,25.6 182.6,25.6 182.6,24 194.5,24 194.5,25.6 189.4,25.6 189.4,39.2 187.7,39.2 "/>
<polygon class="st0" points="200.2,33.2 194,24 196,24 201.1,31.6 206.3,24 208.3,24 202,33.2 202,39.2 200.2,39.2 "/>
<path class="st0" d="M70.7,6.2v18.7c0,7.3-3.9,11.1-10.1,11.1c-6.4,0-10.3-4.1-10.3-11.3V6.2h-2.8h-1H30.2v0.9h1.1
	c0.9,0,1.7,0.2,2.2,0.5c0.6,0.3,0.9,0.7,1.1,1.1c0.2,0.4,0.3,1.5,0.3,3.2v9.4H23.1v-9.4c0-1.7,0.1-2.7,0.3-3.1
	c0.2-0.6,0.6-0.9,1-1.2c0.6-0.3,1.4-0.5,2.3-0.5h1.1V6.2H10.4v0.9h1.1c0.9,0,1.7,0.2,2.2,0.5c0.5,0.3,0.9,0.7,1.1,1.1
	c0.2,0.4,0.3,1.5,0.3,3.2v21.9c0,1.7-0.1,2.7-0.3,3.1c-0.2,0.6-0.6,0.9-1,1.2c-0.6,0.3-1.4,0.5-2.3,0.5h-1.1v0.9h17.4v-0.9h-1.1
	c-0.9,0-1.7-0.2-2.2-0.5c-0.5-0.3-0.9-0.7-1.1-1.1c-0.2-0.4-0.3-1.5-0.3-3.2V23.4h11.7v10.3c0,1.7-0.1,2.7-0.3,3.1
	c-0.2,0.6-0.6,0.9-1,1.2c-0.6,0.3-1.3,0.5-2.3,0.5h-1.1v0.9h17.4v-0.9h-1.1c-0.9,0-1.7-0.2-2.2-0.5c-0.6-0.3-0.9-0.7-1.1-1.1
	s-0.3-1.5-0.3-3.2V11.9c0-1.7,0.1-2.7,0.3-3.1c0.2-0.6,0.6-0.9,1-1.2c0.6-0.3,1.3-0.5,2.3-0.5h0.1v17.7c0,9.5,5.7,14.6,14,14.6
	c8.4,0,14-5.1,14-14.9V6.2L70.7,6.2L70.7,6.2z"/>
</svg>
